M48
;Layer_Color=9474304
;FILE_FORMAT=2:4
INCH,LZ
;TYPE=PLATED
T1F00S00C0.0118
T2F00S00C0.0394
%
T01
X-00275Y001
X-0021
X-0024Y002
X-003Y00225
X-003031Y004016
X-0025Y00375
X-0023Y0034
X-0013Y0037
X-0005Y0032
X0004Y0033
Y0042
X0006Y002
X0014Y0008
X0025
Y-0008
X0013
X0006Y-0016
X-0005Y0008
X-0013Y0024
X0027
Y0035
Y0084
X0002Y0085
X-0009Y0081
X-002Y0085
X-0031Y0082
X-00225Y00625
X-0015Y0063
X-0004
X-0028Y0055
X-00275Y005
X-003388Y00475
X-00375Y004315
X-0045Y0046
Y0036
X-0046Y0019
X-004Y00225
X-0035Y0022
Y0005
X-00425Y001
X-0051Y0007
X-0057Y0023
X-0058Y0044
X-0055Y0064
X-0039Y0059
X-0035Y0067
X-0042Y0074
Y0085
T02
X-003Y-001
Y0
X-002
X-001
X0
Y-001
X-001
X-002
X001Y003
X002
Y004
Y005
Y006
X001
Y005
Y004
Y007
X002
Y008
X001
X-005
Y007
Y0
X-004
Y-001
X-005
M30
