G04 Layer_Color=65535*
%FSLAX24Y24*%
%MOIN*%
%TF.FileFunction,Legend,Top*%
%TF.Part,Single*%
G01*
G75*
%TA.AperFunction,NonConductor*%
%ADD30C,0.0080*%
%ADD31C,0.0039*%
%ADD32C,0.0098*%
%ADD33C,0.0079*%
%ADD34C,0.0060*%
%ADD35R,0.0073X0.0256*%
%ADD36R,0.0670X0.0180*%
%ADD37R,0.0065X0.0230*%
D30*
X-2040Y6619D02*
G03*
X-1955Y6704I0J85D01*
G01*
X-2545D02*
G03*
X-2460Y6619I85J0D01*
G01*
X-1955Y7796D02*
G03*
X-2040Y7881I-85J0D01*
G01*
X-2460D02*
G03*
X-2545Y7796I0J-85D01*
G01*
X-540Y6619D02*
G03*
X-455Y6704I0J85D01*
G01*
X-1045D02*
G03*
X-960Y6619I85J0D01*
G01*
X-455Y7796D02*
G03*
X-540Y7881I-85J0D01*
G01*
X-960D02*
G03*
X-1045Y7796I0J-85D01*
G01*
X-1955Y6704D02*
Y7796D01*
X-2545Y6704D02*
Y7796D01*
X-2460Y6619D02*
X-2040D01*
X-2460Y7881D02*
X-2040D01*
X-455Y6704D02*
Y7796D01*
X-1045Y6704D02*
Y7796D01*
X-960Y6619D02*
X-540D01*
X-960Y7881D02*
X-540D01*
D31*
X-2654Y2331D02*
G03*
X-2654Y2331I-20J0D01*
G01*
D32*
X-3282Y6219D02*
G03*
X-3282Y6219I-49J0D01*
G01*
D33*
X-4862Y2580D02*
Y2620D01*
X-5138Y2580D02*
Y2620D01*
X-5500Y-1500D02*
Y500D01*
X575D01*
Y-1500D02*
Y500D01*
X-5500Y-1500D02*
X575D01*
X-500Y-500D02*
Y700D01*
X800D01*
Y-500D02*
Y700D01*
X-500Y-500D02*
X800D01*
X500Y8500D02*
X2500D01*
Y2425D02*
Y8500D01*
X500Y2425D02*
X2500D01*
X500D02*
Y8500D01*
X1500Y3500D02*
X2700D01*
Y2200D02*
Y3500D01*
X1500Y2200D02*
X2700D01*
X1500D02*
Y3500D01*
X-4510Y6425D02*
Y8575D01*
X-5490Y6425D02*
Y8575D01*
X-4510D01*
X-5490Y6425D02*
X-4510D01*
X-3020Y1362D02*
X-2980D01*
X-3020Y1638D02*
X-2980D01*
X-4020Y1638D02*
X-3980D01*
X-4020Y1362D02*
X-3980D01*
X-1520Y1838D02*
X-1480D01*
X-1520Y1562D02*
X-1480D01*
X-320Y1838D02*
X-280D01*
X-320Y1562D02*
X-280D01*
X-1520Y3238D02*
X-1480D01*
X-1520Y2962D02*
X-1480D01*
X-320Y2638D02*
X-280D01*
X-320Y2362D02*
X-280D01*
X-2831Y2331D02*
Y2350D01*
Y3650D02*
Y3669D01*
X-4169Y2331D02*
Y2350D01*
Y3650D02*
Y3669D01*
X-3089Y2331D02*
X-2831D01*
X-4169D02*
X-3911D01*
X-3089Y3669D02*
X-2831D01*
X-4169D02*
X-3911D01*
X-638Y5230D02*
Y5270D01*
X-362Y5230D02*
Y5270D01*
X-1388Y5230D02*
Y5270D01*
X-1112Y5230D02*
Y5270D01*
X-138Y7230D02*
Y7270D01*
X138Y7230D02*
Y7270D01*
X-1638Y7230D02*
Y7270D01*
X-1362Y7230D02*
Y7270D01*
X-2862Y6780D02*
Y6820D01*
X-3138Y6780D02*
Y6820D01*
X-2553Y4890D02*
Y6110D01*
X-2947Y4890D02*
Y6110D01*
Y4890D02*
X-2553D01*
X-2947Y6110D02*
X-2553D01*
X-4862Y4730D02*
Y4770D01*
X-5138Y4730D02*
Y4770D01*
X-4770Y5888D02*
X-4730D01*
X-4770Y5612D02*
X-4730D01*
X-1220Y8268D02*
Y8583D01*
X-1063Y8740D01*
X-906Y8583D01*
Y8268D01*
Y8504D01*
X-1220D01*
X-748Y8740D02*
Y8346D01*
X-669Y8268D01*
X-512D01*
X-433Y8346D01*
Y8740D01*
X-276D02*
X39Y8268D01*
Y8740D02*
X-276Y8268D01*
X-2795Y8661D02*
X-2874Y8740D01*
X-3032D01*
X-3110Y8661D01*
Y8346D01*
X-3032Y8268D01*
X-2874D01*
X-2795Y8346D01*
X-2638Y8740D02*
Y8268D01*
X-2323D01*
X-2166Y8740D02*
Y8268D01*
Y8425D01*
X-1851Y8740D01*
X-2087Y8504D01*
X-1851Y8268D01*
D34*
X-4800Y3300D02*
X-5200D01*
Y3500D01*
X-5133Y3567D01*
X-5000D01*
X-4933Y3500D01*
Y3300D01*
Y3433D02*
X-4800Y3567D01*
X-4867Y3700D02*
X-4800Y3767D01*
Y3900D01*
X-4867Y3966D01*
X-5133D01*
X-5200Y3900D01*
Y3767D01*
X-5133Y3700D01*
X-5067D01*
X-5000Y3767D01*
Y3966D01*
X-1533Y1233D02*
X-1600Y1300D01*
X-1733D01*
X-1800Y1233D01*
Y967D01*
X-1733Y900D01*
X-1600D01*
X-1533Y967D01*
X-1400Y900D02*
X-1267D01*
X-1333D01*
Y1300D01*
X-1400Y1233D01*
X-1599Y2610D02*
X-1665Y2677D01*
X-1799D01*
X-1865Y2610D01*
Y2344D01*
X-1799Y2277D01*
X-1665D01*
X-1599Y2344D01*
X-1199Y2277D02*
X-1465D01*
X-1199Y2544D01*
Y2610D01*
X-1265Y2677D01*
X-1399D01*
X-1465Y2610D01*
X-3833Y1033D02*
X-3900Y1100D01*
X-4033D01*
X-4100Y1033D01*
Y767D01*
X-4033Y700D01*
X-3900D01*
X-3833Y767D01*
X-3700Y1033D02*
X-3633Y1100D01*
X-3500D01*
X-3434Y1033D01*
Y967D01*
X-3500Y900D01*
X-3567D01*
X-3500D01*
X-3434Y833D01*
Y767D01*
X-3500Y700D01*
X-3633D01*
X-3700Y767D01*
X-2933Y1033D02*
X-3000Y1100D01*
X-3133D01*
X-3200Y1033D01*
Y767D01*
X-3133Y700D01*
X-3000D01*
X-2933Y767D01*
X-2600Y700D02*
Y1100D01*
X-2800Y900D01*
X-2534D01*
X300Y3900D02*
X-100D01*
Y4100D01*
X-33Y4167D01*
X100D01*
X167Y4100D01*
Y3900D01*
X300Y4566D02*
Y4300D01*
X33Y4566D01*
X-33D01*
X-100Y4500D01*
Y4367D01*
X-33Y4300D01*
Y4700D02*
X-100Y4766D01*
Y4900D01*
X-33Y4966D01*
X233D01*
X300Y4900D01*
Y4766D01*
X233Y4700D01*
X-33D01*
X-5100Y700D02*
X-5500D01*
Y900D01*
X-5433Y967D01*
X-5300D01*
X-5233Y900D01*
Y700D01*
X-5100Y1366D02*
Y1100D01*
X-5367Y1366D01*
X-5433D01*
X-5500Y1300D01*
Y1167D01*
X-5433Y1100D01*
X-5100Y1766D02*
Y1500D01*
X-5367Y1766D01*
X-5433D01*
X-5500Y1700D01*
Y1566D01*
X-5433Y1500D01*
X-600Y900D02*
Y1300D01*
X-400D01*
X-333Y1233D01*
Y1100D01*
X-400Y1033D01*
X-600D01*
X-467D02*
X-333Y900D01*
X-200D02*
X-67D01*
X-133D01*
Y1300D01*
X-200Y1233D01*
X-650Y2900D02*
Y3300D01*
X-450D01*
X-383Y3233D01*
Y3100D01*
X-450Y3033D01*
X-650D01*
X-517D02*
X-383Y2900D01*
X16D02*
X-250D01*
X16Y3167D01*
Y3233D01*
X-50Y3300D01*
X-183D01*
X-250Y3233D01*
X-1100Y3900D02*
X-1500D01*
Y4100D01*
X-1433Y4167D01*
X-1300D01*
X-1233Y4100D01*
Y3900D01*
Y4033D02*
X-1100Y4167D01*
X-1433Y4300D02*
X-1500Y4367D01*
Y4500D01*
X-1433Y4566D01*
X-1367D01*
X-1300Y4500D01*
Y4433D01*
Y4500D01*
X-1233Y4566D01*
X-1167D01*
X-1100Y4500D01*
Y4367D01*
X-1167Y4300D01*
X-400Y3900D02*
X-800D01*
Y4100D01*
X-733Y4167D01*
X-600D01*
X-533Y4100D01*
Y3900D01*
Y4033D02*
X-400Y4167D01*
Y4500D02*
X-800D01*
X-600Y4300D01*
Y4566D01*
X-1300Y6000D02*
X-1700D01*
Y6200D01*
X-1633Y6267D01*
X-1500D01*
X-1433Y6200D01*
Y6000D01*
Y6133D02*
X-1300Y6267D01*
X-1700Y6666D02*
Y6400D01*
X-1500D01*
X-1567Y6533D01*
Y6600D01*
X-1500Y6666D01*
X-1367D01*
X-1300Y6600D01*
Y6467D01*
X-1367Y6400D01*
X200Y6000D02*
X-200D01*
Y6200D01*
X-133Y6267D01*
X0D01*
X67Y6200D01*
Y6000D01*
Y6133D02*
X200Y6267D01*
X-200Y6666D02*
X-133Y6533D01*
X0Y6400D01*
X133D01*
X200Y6467D01*
Y6600D01*
X133Y6666D01*
X67D01*
X0Y6600D01*
Y6400D01*
X-3800Y4300D02*
Y3967D01*
X-3733Y3900D01*
X-3600D01*
X-3533Y3967D01*
Y4300D01*
X-3400Y3900D02*
X-3267D01*
X-3333D01*
Y4300D01*
X-3400Y4233D01*
X-3733Y6667D02*
X-3800Y6600D01*
Y6467D01*
X-3733Y6400D01*
X-3467D01*
X-3400Y6467D01*
Y6600D01*
X-3467Y6667D01*
X-3800Y7066D02*
Y6800D01*
X-3600D01*
X-3667Y6933D01*
Y7000D01*
X-3600Y7066D01*
X-3467D01*
X-3400Y7000D01*
Y6867D01*
X-3467Y6800D01*
X-3000Y4700D02*
Y4367D01*
X-2933Y4300D01*
X-2800D01*
X-2733Y4367D01*
Y4700D01*
X-2334Y4300D02*
X-2600D01*
X-2334Y4567D01*
Y4633D01*
X-2400Y4700D01*
X-2533D01*
X-2600Y4633D01*
X-4200Y4100D02*
X-4600D01*
Y4300D01*
X-4533Y4367D01*
X-4400D01*
X-4333Y4300D01*
Y4100D01*
Y4233D02*
X-4200Y4367D01*
X-4600Y4500D02*
Y4766D01*
X-4533D01*
X-4267Y4500D01*
X-4200D01*
X-4600Y5000D02*
Y5400D01*
X-4400D01*
X-4333Y5333D01*
Y5200D01*
X-4400Y5133D01*
X-4600D01*
X-4467D02*
X-4333Y5000D01*
X-4200Y5333D02*
X-4133Y5400D01*
X-4000D01*
X-3934Y5333D01*
Y5267D01*
X-4000Y5200D01*
X-3934Y5133D01*
Y5067D01*
X-4000Y5000D01*
X-4133D01*
X-4200Y5067D01*
Y5133D01*
X-4133Y5200D01*
X-4200Y5267D01*
Y5333D01*
X-4133Y5200D02*
X-4000D01*
X1700Y1000D02*
X1833D01*
X1767D01*
Y600D01*
X1700D01*
X1833D01*
X2033D02*
Y1000D01*
X2300Y600D01*
Y1000D01*
X-3900Y7500D02*
X-4167D01*
X-4300Y7633D01*
X-4167Y7767D01*
X-3900D01*
X-4100D01*
Y7500D01*
X-4300Y7900D02*
X-3967D01*
X-3900Y7967D01*
Y8100D01*
X-3967Y8166D01*
X-4300D01*
Y8300D02*
X-3900Y8566D01*
X-4300D02*
X-3900Y8300D01*
X-5950Y2600D02*
Y2833D01*
Y2717D01*
X-5600D01*
Y3008D02*
Y3125D01*
X-5658Y3183D01*
X-5775D01*
X-5833Y3125D01*
Y3008D01*
X-5775Y2950D01*
X-5658D01*
X-5600Y3008D01*
Y3300D02*
X-5833D01*
Y3358D01*
X-5775Y3416D01*
X-5600D01*
X-5775D01*
X-5833Y3475D01*
X-5775Y3533D01*
X-5600D01*
X-5833Y3708D02*
Y3825D01*
X-5775Y3883D01*
X-5600D01*
Y3708D01*
X-5658Y3650D01*
X-5717Y3708D01*
Y3883D01*
X-5833Y4000D02*
Y4233D01*
X-5600Y4000D01*
Y4233D01*
Y4933D02*
Y4699D01*
X-5833Y4933D01*
X-5892D01*
X-5950Y4874D01*
Y4758D01*
X-5892Y4699D01*
Y5049D02*
X-5950Y5108D01*
Y5224D01*
X-5892Y5282D01*
X-5658D01*
X-5600Y5224D01*
Y5108D01*
X-5658Y5049D01*
X-5892D01*
X-5600Y5632D02*
Y5399D01*
X-5833Y5632D01*
X-5892D01*
X-5950Y5574D01*
Y5457D01*
X-5892Y5399D01*
X-5600Y5749D02*
Y5866D01*
Y5807D01*
X-5950D01*
X-5892Y5749D01*
D35*
X-1952Y7824D02*
D03*
X-452D02*
D03*
D36*
X-2250Y7937D02*
D03*
X-750D02*
D03*
D37*
X-2553Y7837D02*
D03*
X-1053D02*
D03*
%TF.MD5,2797c33495c4db66bfec1bd373f698ab*%
M02*
