G04 Layer_Color=8388736*
%FSLAX24Y24*%
%MOIN*%
%TF.FileFunction,Soldermask,Top*%
%TF.Part,Single*%
G01*
G75*
%TA.AperFunction,SMDPad,CuDef*%
%ADD13R,0.0394X0.0394*%
%TA.AperFunction,NonConductor*%
%ADD25R,0.0157X0.0718*%
%TA.AperFunction,ConnectorPad*%
%ADD26R,0.1891X0.0710*%
%TA.AperFunction,ComponentPad*%
%ADD27C,0.0749*%
%ADD28R,0.0749X0.0749*%
%ADD29R,0.0749X0.0749*%
%TA.AperFunction,NonConductor*%
%ADD38R,0.0157X0.0669*%
%TA.AperFunction,SMDPad,CuDef*%
%ADD39R,0.0434X0.0356*%
%TA.AperFunction,ConnectorPad*%
%ADD40R,0.2167X0.0671*%
%TA.AperFunction,SMDPad,CuDef*%
%ADD41R,0.0356X0.0434*%
%ADD42R,0.0474X0.0178*%
%ADD43R,0.0667X0.1017*%
G04:AMPARAMS|DCode=44|XSize=33.6mil|YSize=55.2mil|CornerRadius=5.9mil|HoleSize=0mil|Usage=FLASHONLY|Rotation=90.000|XOffset=0mil|YOffset=0mil|HoleType=Round|Shape=RoundedRectangle|*
%AMROUNDEDRECTD44*
21,1,0.0336,0.0434,0,0,90.0*
21,1,0.0218,0.0552,0,0,90.0*
1,1,0.0118,0.0217,0.0109*
1,1,0.0118,0.0217,-0.0109*
1,1,0.0118,-0.0217,-0.0109*
1,1,0.0118,-0.0217,0.0109*
%
%ADD44ROUNDEDRECTD44*%
D13*
X-2250Y7585D02*
D03*
Y6915D02*
D03*
X-750Y7585D02*
D03*
Y6915D02*
D03*
D25*
X3102Y1678D02*
D03*
Y-1678D02*
D03*
D26*
X2079Y1677D02*
D03*
Y-1677D02*
D03*
D27*
X-3000Y-1000D02*
D03*
Y0D02*
D03*
X-1000D02*
D03*
X-2000D02*
D03*
X0Y-1000D02*
D03*
X-1000D02*
D03*
X-2000D02*
D03*
X-4000Y0D02*
D03*
Y-1000D02*
D03*
X-5000D02*
D03*
Y0D02*
D03*
X1000Y6000D02*
D03*
X2000D02*
D03*
Y4000D02*
D03*
Y5000D02*
D03*
X1000Y3000D02*
D03*
Y4000D02*
D03*
Y5000D02*
D03*
X2000Y7000D02*
D03*
X1000D02*
D03*
Y8000D02*
D03*
X2000D02*
D03*
X-5000Y7000D02*
D03*
D28*
X0Y0D02*
D03*
D29*
X2000Y3000D02*
D03*
X-5000Y8000D02*
D03*
D38*
X3102Y-0D02*
D03*
D39*
X-5000Y2324D02*
D03*
Y2876D02*
D03*
X-500Y5526D02*
D03*
Y4974D02*
D03*
X-1250Y5526D02*
D03*
Y4974D02*
D03*
X0Y7526D02*
D03*
Y6974D02*
D03*
X-1500Y7526D02*
D03*
Y6974D02*
D03*
X-3000Y7076D02*
D03*
Y6524D02*
D03*
X-5000Y4474D02*
D03*
Y5026D02*
D03*
D40*
X1941Y0D02*
D03*
D41*
X-2724Y1500D02*
D03*
X-3276D02*
D03*
X-4276Y1500D02*
D03*
X-3724D02*
D03*
X-1776Y1700D02*
D03*
X-1224D02*
D03*
X-24Y1700D02*
D03*
X-576D02*
D03*
X-1776Y3100D02*
D03*
X-1224D02*
D03*
X-24Y2500D02*
D03*
X-576D02*
D03*
X-4474Y5750D02*
D03*
X-5026D02*
D03*
D42*
X-2931Y2557D02*
D03*
Y2734D02*
D03*
Y2911D02*
D03*
Y3089D02*
D03*
Y3266D02*
D03*
Y3443D02*
D03*
X-4069Y2557D02*
D03*
Y2734D02*
D03*
Y2911D02*
D03*
Y3089D02*
D03*
Y3266D02*
D03*
Y3443D02*
D03*
D43*
X-3500Y3000D02*
D03*
D44*
X-2169Y5874D02*
D03*
Y5500D02*
D03*
Y5126D02*
D03*
X-3331D02*
D03*
Y5500D02*
D03*
Y5874D02*
D03*
%TF.MD5,88b1b57aba1ac11b62312f9460814c73*%
M02*
